<svg width="42" height="42" viewBox="0 0 42 42" fill="none" xmlns="http://www.w3.org/2000/svg">
<path d="M32.9538 7.94209H22.6339V2.78217C22.6339 2.44004 22.498 2.11193 22.2561 1.87001C22.0142 1.6281 21.6861 1.49219 21.344 1.49219C21.0018 1.49219 20.6737 1.6281 20.4318 1.87001C20.1899 2.11193 20.054 2.44004 20.054 2.78217V7.94209H9.73414C8.36564 7.94209 7.0532 8.48572 6.08552 9.45339C5.11785 10.4211 4.57422 11.7335 4.57422 13.102V31.1617C4.57422 32.5302 5.11785 33.8427 6.08552 34.8103C7.0532 35.778 8.36564 36.3216 9.73414 36.3216H32.9538C34.3223 36.3216 35.6347 35.778 36.6024 34.8103C37.57 33.8427 38.1137 32.5302 38.1137 31.1617V13.102C38.1137 11.7335 37.57 10.4211 36.6024 9.45339C35.6347 8.48572 34.3223 7.94209 32.9538 7.94209ZM35.5337 31.1617C35.5337 31.846 35.2619 32.5022 34.7781 32.986C34.2942 33.4699 33.638 33.7417 32.9538 33.7417H9.73414C9.04989 33.7417 8.39367 33.4699 7.90983 32.986C7.42599 32.5022 7.15418 31.846 7.15418 31.1617V13.102C7.15418 12.4178 7.42599 11.7615 7.90983 11.2777C8.39367 10.7939 9.04989 10.522 9.73414 10.522H32.9538C33.638 10.522 34.2942 10.7939 34.7781 11.2777C35.2619 11.7615 35.5337 12.4178 35.5337 13.102V31.1617ZM27.1489 22.1319H15.539C14.3416 22.1319 13.1932 22.6075 12.3465 23.4543C11.4998 24.301 11.0241 25.4494 11.0241 26.6468C11.0241 27.8442 11.4998 28.9926 12.3465 29.8393C13.1932 30.686 14.3416 31.1617 15.539 31.1617H27.1489C28.3463 31.1617 29.4947 30.686 30.3414 29.8393C31.1881 28.9926 31.6638 27.8442 31.6638 26.6468C31.6638 25.4494 31.1881 24.301 30.3414 23.4543C29.4947 22.6075 28.3463 22.1319 27.1489 22.1319ZM23.2789 24.7118V28.5818H19.409V24.7118H23.2789ZM13.6041 26.6468C13.6041 26.1336 13.8079 25.6414 14.1708 25.2786C14.5337 24.9157 15.0259 24.7118 15.539 24.7118H16.829V28.5818H15.539C15.0259 28.5818 14.5337 28.3779 14.1708 28.015C13.8079 27.6521 13.6041 27.16 13.6041 26.6468ZM27.1489 28.5818H25.8589V24.7118H27.1489C27.662 24.7118 28.1542 24.9157 28.5171 25.2786C28.88 25.6414 29.0838 26.1336 29.0838 26.6468C29.0838 27.16 28.88 27.6521 28.5171 28.015C28.1542 28.3779 27.662 28.5818 27.1489 28.5818ZM12.3141 17.6169C12.3141 17.2342 12.4276 16.8601 12.6402 16.5419C12.8528 16.2237 13.155 15.9757 13.5086 15.8293C13.8622 15.6828 14.2512 15.6445 14.6266 15.7191C15.0019 15.7938 15.3467 15.9781 15.6173 16.2487C15.8879 16.5193 16.0722 16.8641 16.1469 17.2394C16.2215 17.6148 16.1832 18.0038 16.0367 18.3574C15.8903 18.711 15.6423 19.0132 15.3241 19.2258C15.0059 19.4384 14.6318 19.5519 14.2491 19.5519C13.7359 19.5519 13.2437 19.348 12.8808 18.9852C12.518 18.6223 12.3141 18.1301 12.3141 17.6169ZM26.5039 17.6169C26.5039 17.2342 26.6174 16.8601 26.83 16.5419C27.0426 16.2237 27.3448 15.9757 27.6984 15.8293C28.0519 15.6828 28.441 15.6445 28.8163 15.7191C29.1917 15.7938 29.5365 15.9781 29.8071 16.2487C30.0777 16.5193 30.262 16.8641 30.3366 17.2394C30.4113 17.6148 30.373 18.0038 30.2265 18.3574C30.0801 18.711 29.8321 19.0132 29.5138 19.2258C29.1956 19.4384 28.8215 19.5519 28.4388 19.5519C27.9257 19.5519 27.4335 19.348 27.0706 18.9852C26.7077 18.6223 26.5039 18.1301 26.5039 17.6169Z" fill="#6B76FF"/>
</svg>
