<svg width="25" height="24" viewBox="0 0 25 24" fill="none" xmlns="http://www.w3.org/2000/svg">
<path d="M21.3044 9.6C20.984 9.6 20.6767 9.72643 20.4501 9.95147C20.2235 10.1765 20.0962 10.4817 20.0962 10.8V14.856L18.3082 13.08C17.6768 12.4579 16.8235 12.1088 15.9341 12.1088C15.0448 12.1088 14.1914 12.4579 13.5601 13.08L12.7144 13.932L9.71811 10.944C9.08676 10.3219 8.23343 9.97275 7.34407 9.97275C6.45471 9.97275 5.60139 10.3219 4.97003 10.944L3.18195 12.732V6C3.18195 5.68174 3.30924 5.37652 3.53581 5.15147C3.76239 4.92643 4.06969 4.8 4.39011 4.8H14.0554C14.3758 4.8 14.6831 4.67357 14.9097 4.44853C15.1363 4.22348 15.2636 3.91826 15.2636 3.6C15.2636 3.28174 15.1363 2.97652 14.9097 2.75147C14.6831 2.52643 14.3758 2.4 14.0554 2.4H4.39011C3.42884 2.4 2.50694 2.77928 1.82721 3.45442C1.14749 4.12955 0.765625 5.04522 0.765625 6V20.664C0.768809 21.5478 1.12369 22.3945 1.75288 23.0194C2.38207 23.6444 3.23452 23.9968 4.12432 24H19.1539C19.4811 23.9956 19.8062 23.9471 20.1204 23.856C20.818 23.6616 21.4322 23.2453 21.8687 22.6709C22.3052 22.0965 22.5399 21.3957 22.5367 20.676V10.8C22.5368 10.6404 22.5047 10.4823 22.4425 10.3352C22.3803 10.188 22.2891 10.0546 22.1744 9.94287C22.0596 9.83112 21.9235 9.74324 21.7742 9.68436C21.6248 9.62549 21.4651 9.59681 21.3044 9.6ZM4.39011 21.6C4.06969 21.6 3.76239 21.4736 3.53581 21.2485C3.30924 21.0235 3.18195 20.7183 3.18195 20.4V16.116L6.67354 12.648C6.85012 12.4736 7.08901 12.3757 7.33803 12.3757C7.58705 12.3757 7.82595 12.4736 8.00252 12.648L17.0275 21.6H4.39011ZM20.0962 20.4C20.0885 20.6324 20.0129 20.8575 19.8788 21.048L14.4179 15.6L15.2757 14.76C15.3623 14.6722 15.4657 14.6024 15.5798 14.5548C15.6939 14.5072 15.8164 14.4827 15.9402 14.4827C16.0639 14.4827 16.1864 14.5072 16.3005 14.5548C16.4146 14.6024 16.518 14.6722 16.6046 14.76L20.0962 18.252V20.4ZM23.7207 2.4H22.5126V1.2C22.5126 0.88174 22.3853 0.576515 22.1587 0.351472C21.9321 0.126428 21.6248 0 21.3044 0C20.984 0 20.6767 0.126428 20.4501 0.351472C20.2235 0.576515 20.0962 0.88174 20.0962 1.2V2.4H18.8881C18.5676 2.4 18.2603 2.52643 18.0338 2.75147C17.8072 2.97652 17.6799 3.28174 17.6799 3.6C17.6799 3.91826 17.8072 4.22348 18.0338 4.44853C18.2603 4.67357 18.5676 4.8 18.8881 4.8H20.0962V6C20.0962 6.31826 20.2235 6.62348 20.4501 6.84853C20.6767 7.07357 20.984 7.2 21.3044 7.2C21.6248 7.2 21.9321 7.07357 22.1587 6.84853C22.3853 6.62348 22.5126 6.31826 22.5126 6V4.8H23.7207C24.0412 4.8 24.3485 4.67357 24.575 4.44853C24.8016 4.22348 24.9289 3.91826 24.9289 3.6C24.9289 3.28174 24.8016 2.97652 24.575 2.75147C24.3485 2.52643 24.0412 2.4 23.7207 2.4Z" fill="#BDBDBD"/>
</svg>
